<?xml version="1.0" encoding="UTF-8"?>
<svg version="1.1" viewBox="0 0 149 44" xmlns="http://www.w3.org/2000/svg">
<title>Appstore</title>
<desc>Created with Sketch.</desc>
<g fill="none" fill-rule="evenodd">
<g transform="translate(-721 -3524)">
<g transform="translate(-288 2973)">
<g transform="translate(1009.8 354)">
<g transform="translate(0 197)">
<g stroke-linejoin="square">
<rect x=".51163" y=".51163" width="146.98" height="42.977" rx="4.093" fill="#000" fill-rule="evenodd" stroke="#A6A6A6" stroke-width="1.0233"/>
<rect x=".25581" y=".25581" width="147.49" height="43.488" rx="4.093" stroke="#8F8F8F" stroke-width=".51163"/>
</g>
<path d="m56.808 33.791l-1.3796-4.0093h-5.7484l-1.3901 4.0093h-2.4039l5.4453-15.105h2.5188l5.4453 15.105h-2.4875zm-4.3374-12.363l-2.1948 6.3855h4.5569l-2.1844-6.3855h-0.17768zm13.421 0.77463c2.8951 0 4.7241 2.2611 4.7241 5.883s-1.829 5.8935-4.7032 5.8935c-1.62 0-2.9056-0.71183-3.5013-1.9156h-0.17768v5.4224h-2.2471v-15.095h2.1635v1.8842h0.16723c0.68981-1.298 2.0276-2.0727 3.5745-2.0727zm-0.63755 9.7562c1.9127 0 3.0519-1.4551 3.0519-3.8732 0-2.4076-1.1392-3.8627-3.0414-3.8627-1.8917 0-3.0728 1.4865-3.0728 3.8732 0 2.3762 1.181 3.8627 3.0623 3.8627zm12.292-9.7562c2.8951 0 4.7241 2.2611 4.7241 5.883s-1.829 5.8935-4.7032 5.8935c-1.62 0-2.9056-0.71183-3.5013-1.9156h-0.17768v5.4224h-2.2471v-15.095h2.1635v1.8842h0.16723c0.68981-1.298 2.0276-2.0727 3.5745-2.0727zm-0.63755 9.7562c1.9127 0 3.0519-1.4551 3.0519-3.8732 0-2.4076-1.1392-3.8627-3.0414-3.8627-1.8917 0-3.0728 1.4865-3.0728 3.8732 0 2.3762 1.181 3.8627 3.0623 3.8627zm10.118-2.2297h2.3203c0.19858 1.4341 1.5991 2.3448 3.6163 2.3448 1.8813 0 3.2609-0.97353 3.2609-2.3134 0-1.1515-0.87794-1.8424-2.8742-2.3134l-1.944-0.47106c-2.7279-0.63855-3.9716-1.9575-3.9716-4.1767 0-2.6903 2.1948-4.4803 5.4871-4.4803 3.0623 0 5.299 1.79 5.4349 4.3338h-2.2785c-0.21948-1.3922-1.4319-2.2611-3.1878-2.2611-1.8499 0-3.0832 0.88978-3.0832 2.2506 0 1.0782 0.79432 1.6958 2.7592 2.1564l1.6618 0.40825c3.0937 0.72229 4.3688 1.9785 4.3688 4.25 0 2.8892-2.2367 4.7001-5.8111 4.7001-3.3445 0-5.5916-1.7272-5.7589-4.428zm13.504-10.102h2.2471v2.8159h2.5502v1.8947h-2.5502v5.8621c0 1.1934 0.49123 1.7168 1.6096 1.7168 0.3449 0 0.52258-0.020936 0.83613-0.05234v1.8738c-0.35536 0.062808-0.76297 0.11515-1.2019 0.11515-2.4979 0-3.4908-0.87931-3.4908-3.0776v-6.4378h-1.8708v-1.8947h1.8708v-2.8159zm10.369 12.384c1.944 0 3.0519-1.4446 3.0519-3.9255 0-2.4705-1.1079-3.915-3.0519-3.915-1.9545 0-3.0519 1.4446-3.0519 3.915 0 2.4914 1.0974 3.9255 3.0519 3.9255zm0 1.9994c-3.3341 0-5.3721-2.2297-5.3721-5.9249 0-3.6743 2.0485-5.9144 5.3721-5.9144 3.3132 0 5.3617 2.2402 5.3617 5.9144 0 3.6952-2.0381 5.9249-5.3617 5.9249zm6.3866-0.21983v-11.4h2.1635v1.7482h0.16723c0.324-1.1201 1.5782-1.9366 3.0623-1.9366 0.324 0 0.75252 0.031404 0.99291 0.094212v2.2192c-0.17768-0.062808-0.86749-0.13608-1.2437-0.13608-1.6932 0-2.8951 1.0782-2.8951 2.6798v6.7309h-2.2471zm11.445-9.7039c-1.6618 0-2.8219 1.1724-2.9474 2.952h5.7484c-0.052258-1.79-1.1392-2.952-2.801-2.952zm2.7906 6.6263h2.1635c-0.51213 2.0413-2.3307 3.2974-4.9332 3.2974-3.2609 0-5.2572-2.2402-5.2572-5.883s2.0381-5.9563 5.2467-5.9563c3.1668 0 5.0795 2.1669 5.0795 5.7469v0.7851h-8.0373v0.12562c0.073161 1.9994 1.2333 3.266 3.031 3.266 1.3587 0 2.2889-0.492 2.707-1.3818zm-83.53-23.818h2.593c2.1301 0 3.3794 1.311 3.3794 3.5741 0 2.298-1.2393 3.6189-3.3794 3.6189h-2.593v-7.193zm1.1148 1.0169v5.1592h1.3537c1.503 0 2.369-0.93714 2.369-2.5871 0-1.625-0.88092-2.5721-2.369-2.5721h-1.3537zm8.7804 5.3287c0.92572 0 1.4533-0.6879 1.4533-1.8693 0-1.1764-0.52756-1.8643-1.4533-1.8643-0.93069 0-1.4533 0.6879-1.4533 1.8643 0 1.1864 0.52258 1.8693 1.4533 1.8693zm0 0.95209c-1.5877 0-2.5582-1.0618-2.5582-2.8214 0-1.7497 0.97549-2.8164 2.5582-2.8164 1.5777 0 2.5532 1.0667 2.5532 2.8164 0 1.7596-0.97051 2.8214-2.5532 2.8214zm10.94-5.5331l-1.4881 5.4284h-1.1099l-1.1198-3.9978h-0.084608l-1.1148 3.9978h-1.0999l-1.4931-5.4284h1.085l0.97051 4.1423h0.079632l1.1148-4.1423h1.0253l1.1148 4.1423h0.084609l0.96553-4.1423h1.07zm1.3597 5.4284v-5.4284h1.0302v0.86237h0.079632c0.26378-0.60316 0.89585-0.96705 1.7121-0.96705 1.2094 0 1.8912 0.72778 1.8912 2.0188v3.5143h-1.07v-3.2451c0-0.87234-0.3882-1.306-1.1845-1.306-0.86102 0-1.3886 0.52839-1.3886 1.3758v3.1753h-1.07zm6.5208 0v-7.5469h1.07v7.5469h-1.07zm5.2169-0.84741c0.92572 0 1.4533-0.6879 1.4533-1.8693 0-1.1764-0.52756-1.8643-1.4533-1.8643-0.93069 0-1.4533 0.6879-1.4533 1.8643 0 1.1864 0.52258 1.8693 1.4533 1.8693zm0 0.95209c-1.5877 0-2.5582-1.0618-2.5582-2.8214 0-1.7497 0.97549-2.8164 2.5582-2.8164 1.5777 0 2.5532 1.0667 2.5532 2.8164 0 1.7596-0.97051 2.8214-2.5532 2.8214zm5.8639-0.9172c0.80627 0 1.4035-0.51343 1.4035-1.1864v-0.45361l-1.3239 0.084741c-0.74655 0.049848-1.085 0.30407-1.085 0.78261 0 0.48851 0.42304 0.77264 1.0053 0.77264zm-0.27373 0.90224c-1.0452 0-1.8066-0.63307-1.8066-1.625 0-0.97702 0.72664-1.5403 2.0157-1.6201l1.4682-0.084741v-0.46857c0-0.57325-0.37825-0.89726-1.1099-0.89726-0.59724 0-1.0103 0.21933-1.1298 0.60316h-1.0352c0.10949-0.93215 0.98544-1.5303 2.2148-1.5303 1.3587 0 2.1252 0.67793 2.1252 1.8244v3.7087h-1.0302v-0.76267h-0.084608c-0.3235 0.54334-0.91576 0.8524-1.6275 0.8524zm6.5009 0c-1.3786 0-2.2496-1.0867-2.2496-2.8064 0-1.7148 0.88092-2.8014 2.2496-2.8014 0.74157 0 1.3687 0.35392 1.6623 0.95209h0.079632v-2.9809h1.07v7.5469h-1.0253v-0.85738h-0.084609c-0.3235 0.59319-0.95558 0.94711-1.7021 0.94711zm0.3036-4.6458c-0.90083 0-1.4483 0.69787-1.4483 1.8394 0 1.1515 0.54249 1.8444 1.4483 1.8444 0.90083 0 1.4583-0.70285 1.4583-1.8394 0-1.1315-0.5624-1.8444-1.4583-1.8444zm9.6971 3.7087c0.92572 0 1.4533-0.6879 1.4533-1.8693 0-1.1764-0.52756-1.8643-1.4533-1.8643-0.93069 0-1.4533 0.6879-1.4533 1.8643 0 1.1864 0.52258 1.8693 1.4533 1.8693zm0 0.95209c-1.5877 0-2.5582-1.0618-2.5582-2.8214 0-1.7497 0.97549-2.8164 2.5582-2.8164 1.5777 0 2.5532 1.0667 2.5532 2.8164 0 1.7596-0.97051 2.8214-2.5532 2.8214zm4.0921-0.10468v-5.4284h1.0302v0.86237h0.079631c0.26378-0.60316 0.89586-0.96705 1.7121-0.96705 1.2094 0 1.8912 0.72778 1.8912 2.0188v3.5143h-1.07v-3.2451c0-0.87234-0.3882-1.306-1.1845-1.306-0.86102 0-1.3886 0.52839-1.3886 1.3758v3.1753h-1.07zm9.8912-6.7444h1.07v1.3409h1.2144v0.90224h-1.2144v2.7915c0 0.56826 0.23392 0.8175 0.76645 0.8175 0.16424 0 0.24885-0.0099695 0.39816-0.024924v0.89227c-0.16922 0.029909-0.36332 0.054832-0.57235 0.054832-1.1895 0-1.6623-0.41872-1.6623-1.4655v-3.0656h-0.89088v-0.90224h0.89088v-1.3409zm3.8084 6.7444v-7.5469h1.0601v2.9909h0.084609c0.26378-0.60814 0.89088-0.97203 1.7071-0.97203 1.2194 0 1.9161 0.73276 1.9161 2.0238v3.5043h-1.07v-3.2401c0-0.86735-0.40314-1.306-1.2094-1.306-0.87595 0-1.4184 0.55331-1.4184 1.3758v3.1703h-1.07zm8.7555-4.6209c-0.79134 0-1.3438 0.55829-1.4035 1.4057h2.7373c-0.024885-0.8524-0.54249-1.4057-1.3338-1.4057zm1.3289 3.1554h1.0302c-0.24387 0.97203-1.1099 1.5702-2.3491 1.5702-1.5528 0-2.5034-1.0667-2.5034-2.8014 0-1.7347 0.97051-2.8363 2.4984-2.8363 1.508 0 2.4188 1.0318 2.4188 2.7366v0.37386h-3.8273v0.059817c0.034839 0.95209 0.58728 1.5552 1.4433 1.5552 0.64701 0 1.09-0.23428 1.289-0.65799z" fill="#fff"/>
<path d="m32.958 22.21c0.038457 4.3763 3.8231 5.8229 3.8683 5.8376-0.022622 0.10196-0.59269 2.0901-2.0122 4.1044-1.1854 1.7763-2.4273 3.513-4.3999 3.5425-1.9161 0.045315-2.5608-1.1283-4.7585-1.1283-2.2181 0-2.9046 1.0989-4.7427 1.1736-1.8787 0.069105-3.3141-1.8941-4.5425-3.6546-2.4556-3.5923-4.3671-10.123-1.8041-14.568 1.2419-2.1796 3.5064-3.5832 5.9269-3.6206 1.881-0.038517 3.6263 1.2722 4.7823 1.2722 1.1334 0 3.2915-1.5679 5.5163-1.3334 0.93089 0.027189 3.5799 0.36818 5.289 2.8639-0.13799 0.082699-3.1557 1.859-3.1229 5.5103zm-3.6195-10.737c-1.0316 1.219-2.6818 2.1513-4.2891 2.0312-0.21038-1.6449 0.604-3.3941 1.5157-4.4612 1.0304-1.211 2.8198-2.1388 4.2506-2.2023 0.18776 1.7095-0.48863 3.3941-1.4772 4.6323z" fill="#fff"/>
</g>
</g>
</g>
</g>
</g>
</svg>
