<?xml version="1.0" encoding="UTF-8"?>
<svg width="20px" height="20px" viewBox="0 0 20 20" version="1.1" xmlns="http://www.w3.org/2000/svg" xmlns:xlink="http://www.w3.org/1999/xlink">
    <!-- Generator: Sketch 53.2 (72643) - https://sketchapp.com -->
    <title>c-remove</title>
    <desc>Created with Sketch.</desc>
    <g id="Symbols" stroke="none" stroke-width="1" fill="none" fill-rule="evenodd">
        <g id="input-field-Success" transform="translate(-334.000000, -43.000000)" fill-rule="nonzero">
            <g id="input-field">
                <g id="c-remove" transform="translate(334.000000, 43.000000)">
                    <path d="M10,0 C4.4771525,-3.38176876e-16 6.76353751e-16,4.4771525 0,10 C-6.76353751e-16,15.5228475 4.4771525,20 10,20 C15.5228475,20 20,15.5228475 20,10 C19.9839811,4.48380139 15.5161986,0.0160189315 10,0 Z" id="Path" fill="#27CB86"></path>
                    <path d="M8.66106787,14 C8.48409887,13.9999588 8.31439186,13.9233128 8.18927478,13.7869206 L6.18732389,11.6052202 C5.93442931,11.3198692 5.93804606,10.8662894 6.19545276,10.5857709 C6.45285947,10.3052524 6.86906899,10.3013109 7.13091008,10.5769121 L8.59900739,12.1768257 L12.8051062,6.28114414 C13.0313953,5.96384859 13.4508655,5.90654414 13.7420192,6.15315107 C14.0331729,6.39975799 14.0857561,6.85689126 13.859467,7.17418682 L9.18824827,13.7192879 C9.07085715,13.8845971 8.89387059,13.9868647 8.70244152,14 L8.66106787,14 Z" id="Path" fill="#FFFFFF"></path>
                </g>
            </g>
        </g>
    </g>
</svg>