<?xml version="1.0" encoding="UTF-8"?>
<svg version="1.1" viewBox="0 0 150 44" xmlns="http://www.w3.org/2000/svg">
<title>Playstore</title>
<desc>Created with Sketch.</desc>
<defs>
<linearGradient id="d" x1="50%" x2="50%" y2="38.913%">
<stop stop-color="#FBDA09" offset="0"/>
<stop stop-color="#FFBC00" offset="1"/>
</linearGradient>
<linearGradient id="c" x1="36.786%" x2="55.102%" y1="58.476%" y2="39.083%">
<stop stop-color="#01E2FF" offset="0"/>
<stop stop-color="#01C4FF" offset="1"/>
</linearGradient>
<linearGradient id="b" x1="20.281%" x2="83.82%" y1="32.524%" y2="69.652%">
<stop stop-color="#28D781" offset="0"/>
<stop stop-color="#02F076" offset="1"/>
</linearGradient>
<linearGradient id="a" x1="74.488%" x2="10.108%" y1="30.295%" y2="74.917%">
<stop stop-color="#F2414E" offset="0"/>
<stop stop-color="#E02554" offset="1"/>
</linearGradient>
</defs>
<g fill="none" fill-rule="evenodd">
<g transform="translate(-893 -3524)">
<g transform="translate(-288 2973)">
<g transform="translate(1009.8 354)">
<g transform="translate(172 197)">
<g stroke-linejoin="square">
<rect x=".5" y=".5" width="148" height="42.92" rx="5" fill="#000" fill-rule="evenodd" stroke="#A6A6A6"/>
<rect x=".25" y=".25" width="148.5" height="43.42" rx="5" stroke="#8F8F8F" stroke-width=".5"/>
</g>
<path d="m107.72 19.7h6.1817s3.2702 0.55527 3.2702 4.303c0 3.7477-3.2702 4.303-3.2702 4.303l-4.1777 3e-7v5.394h-2.004v-14zm2.004 2.0817v4.6183h3.4555s1.7549 0 1.7549-2.3092c0-2.3092-1.7549-2.3092-1.7549-2.3092h-3.4555zm8.6174-2.0817h2.004v14h-2.004v-14zm9.4318 12.999c-0.55198 0.45451-1.4345 0.88228-2.8283 0.96915-3.1931 0.19902-3.1948-2.7089-3.1948-2.905s-0.15749-2.5675 2.3825-2.9445c1.7986-0.26692 3.0583 0.17782 3.6405 0.4602v-0.41134c-0.14277-0.54478-0.5858-1.5458-1.914-1.5458-1.8248 0-2.2277 0.98457-2.2277 0.98457l-1.6693-0.98457s0.9341-1.9218 3.7369-1.9218c3.485 0 4.0783 2.3989 4.0783 3.2069 0 0.0039327-7e-5 0.0078401-2.08e-4 0.011722v6.0769h-2.004v-0.99649zm-0.14316-2.9987s-3.8608-1.0385-3.995 1.126 3.7039 1.1252 4.0468-0.40923c0-0.48794-0.051813-0.7168-0.051813-0.7168zm5.9076 3.4685l-3.5729-8.4688h2.004l2.5708 6.0937 2.5504-6.0453h2.004l-5.4219 12.852h-2.004l1.8694-4.4312zm-30.304-5.1963l-6.3382 2.6141s0.40934 1.4459 2.315 1.4556c1.4922 0.0075883 2.3345-1.3199 2.3345-1.3199l1.6081 1.0868s-1.2976 2.0944-3.9552 2.0944c-3.2658 0-4.7043-2.85-4.7043-4.7008 0-1.7833 1.1417-4.8028 4.5016-4.8028 3.3599 0 4.2385 3.5726 4.2385 3.5726zm-2.4115-0.74055s-0.79743-1.2108-2.0204-0.98752c-2.587 0.47236-2.2614 2.7317-2.2614 2.7317l4.2818-1.7441zm-9.3346-7.532h2.1201v13.971h-2.1201v-13.971zm-3.3928 5.0036l1.9599 0.016897v8.815c0 2.2522-1.3436 4.6296-4.5068 4.6296-3.1632 0-4.1848-2.797-4.1848-2.797l1.8-0.75547s0.54898 1.7238 2.4783 1.7238c2.1971-2.6e-6 2.4536-1.9949 2.4536-2.6777v-0.95663s-0.76022 1.1874-2.6485 1.1874c-2.0473 2.9e-6 -4.4801-1.7505-4.4801-4.7348s2.2908-4.6912 4.5038-4.7533c1.7726-0.049735 2.6245 1.174 2.6245 1.174v-0.87184zm-2.4809 7.3946c1.4292 0 2.5878-1.3066 2.5878-2.9183 0-1.6117-1.1586-2.9183-2.5878-2.9183-1.4292 0-2.5878 1.3066-2.5878 2.9183 0 1.6117 1.1586 2.9183 2.5878 2.9183zm-10.298 1.8017c-2.6346 0-4.7703-2.1266-4.7703-4.75s2.1358-4.75 4.7703-4.75c2.6346 0 4.7703 2.1266 4.7703 4.75s-2.1358 4.75-4.7703 4.75zm-0.031179-1.8627c1.4809 0 2.6814-1.2927 2.6814-2.8873s-1.2005-2.8873-2.6814-2.8873-2.6814 1.2927-2.6814 2.8873 1.2005 2.8873 2.6814 2.8873zm-10.29 1.8627c-2.6346 0-4.7703-2.1266-4.7703-4.75s2.1358-4.75 4.7703-4.75c2.6346 0 4.7703 2.1266 4.7703 4.75s-2.1358 4.75-4.7703 4.75zm-0.031179-1.8627c1.4809 0 2.6814-1.2927 2.6814-2.8873s-1.2005-2.8873-2.6814-2.8873-2.6814 1.2927-2.6814 2.8873 1.2005 2.8873 2.6814 2.8873zm-5.9885-6.1314h0.52595c2.087e-4 0.024568 3.133e-4 0.049187 3.133e-4 0.073855 0.69202 5.0597-2.7687 7.9732-6.9179 7.9359-4.081-0.0058267-7.3893-3.2942-7.3893-7.3578 0-4.0636 3.3083-7.3578 7.3893-7.3578 2.1332 0 3.9264 0.7421 5.1523 2.0308l-1.4412 1.435c-0.89891-0.91516-2.1756-1.4169-3.6487-1.4169-2.9445 0-5.3316 2.3768-5.3316 5.3088 0 2.932 2.387 5.3088 5.3316 5.3088 2.5547 0 4.4666-1.2759 4.9252-3.9739h-4.894v-1.9869h6.2981zm-6.6766-15.189h0.25202c1e-4 0.011786 1.501e-4 0.023596 1.501e-4 0.03543 0.33159 2.4273-1.3267 3.825-3.3148 3.8071-1.9555-0.0027952-3.5407-1.5803-3.5407-3.5298 0-1.9494 1.5852-3.5298 3.5407-3.5298 1.0221 0 1.8814 0.35601 2.4688 0.97425l-0.69056 0.68843c-0.43073-0.43903-1.0425-0.67971-1.7483-0.67971-1.4109 0-2.5547 1.1402-2.5547 2.5468 0 1.4066 1.1438 2.5468 2.5547 2.5468 1.2241 0 2.1402-0.61209 2.36-1.9064h-2.345v-0.95319h3.0178zm26.664 3.883c-1.9922 0-3.6073-1.6118-3.6073-3.6s1.615-3.6 3.6073-3.6 3.6073 1.6118 3.6073 3.6-1.615 3.6-3.6073 3.6zm0-1.1c1.3835 0 2.505-1.1193 2.505-2.5 0-1.3807-1.1215-2.5-2.505-2.5s-2.505 1.1193-2.505 2.5c0 1.3807 1.1215 2.5 2.505 2.5zm-24.449-2.1v2.2h2.9059v0.8h-4.0081v-6.7h4.0081v0.8h-2.9059v2.1h2.6052v0.8h-2.6052zm6.8137-2.9v5.9h-1.1022v-5.9h-1.7034v-0.8h4.5091v0.8h-1.7034zm9.8198 0v5.9h-1.1022v-5.9h-1.7034v-0.8h4.5091v0.8h-1.7034zm-4.9099-0.8h1.1022v6.7h-1.1022v-6.7zm17.235 0h1.3026l3.0061 4.9024v-4.9024h1.1022v6.7h-1.1022l-3.2065-5.2293v5.2293h-1.1022v-6.7z" fill="#fff"/>
<g transform="translate(10.922 6.8)">
<path transform="translate(12.719 15.111) rotate(90) translate(-12.719 -15.111)" d="m11.165 3.544c0.85831-1.5121 2.2526-1.5074 3.1082 0l12.22 21.528c0.85833 1.5121 0.13699 2.7379-1.5969 2.7379h-24.355c-1.7403 0-2.4526-1.2305-1.5969-2.7379l12.22-21.528z" fill="url(#d)"/>
<path d="m0.01987 2.8911s-7.6079e-4 -0.43163 0.11878-0.81007c0.11954-0.37844 0.33485-0.62608 0.33485-0.62608l13.533 13.429-13.612 13.783s-0.17668-0.19357-0.28748-0.63368c-0.1108-0.44011-0.087708-0.82898-0.087708-0.82898v-24.313z" fill="url(#c)"/>
<path d="m0.4735 1.4549l13.532 13.433 4.6663-4.5104-16.08-9.1381s-0.41569-0.26464-1.089-0.26464c-0.67329 0-1.0287 0.48034-1.0287 0.48034z" fill="url(#b)"/>
<path d="m14.008 14.885l4.8646 4.8934-16.215 9.1644s-0.72118 0.38394-1.3735 0.30485c-0.6523-0.07909-0.89092-0.58086-0.89092-0.58086l13.614-13.782z" fill="url(#a)"/>
</g>
</g>
</g>
</g>
</g>
</g>
</svg>
