<?xml version="1.0" encoding="UTF-8"?>
<svg width="552px" height="100px" viewBox="0 0 552 100" version="1.1" xmlns="http://www.w3.org/2000/svg" xmlns:xlink="http://www.w3.org/1999/xlink">
    <!-- Generator: Sketch 53.2 (72643) - https://sketchapp.com -->
    <title>logo</title>
    <desc>Created with Sketch.</desc>
    <g id="logo" stroke="none" stroke-width="1" fill="none" fill-rule="evenodd">
        <g id="Group">
            <g id="Group-2" transform="translate(123.000000, 21.000000)" fill-rule="nonzero">
                <path d="M27.8091575,36.4296357 C27.8091575,40.51747 26.3604027,44.0041 23.4628495,46.8896301 C20.5652964,49.7751602 17.0846779,51.2179037 13.0208896,51.2179037 C10.3758203,51.2179037 7.9051222,50.5506348 5.60872114,49.2160771 C3.31232008,47.8815195 1.50287937,46.0841016 0.180344731,43.8237697 C0.0601143092,43.5833088 0,43.3548745 0,43.1384597 C0,42.3208928 0.444845888,41.9121155 1.33455101,41.9121155 C1.71928836,41.9121155 2.06795135,42.128527 2.38055045,42.5613566 C2.6210113,42.9460939 3.01776574,43.5231913 3.57082568,44.292666 C5.9994802,47.2262883 9.14947001,48.6930774 13.0208896,48.6930774 C16.3873414,48.6930774 19.2728282,47.4907912 21.6774367,45.0861828 C24.0820451,42.6815744 25.2843313,39.7960875 25.2843313,36.4296357 C25.2843313,33.0631839 24.0820451,30.177697 21.6774367,27.7730886 C19.2728282,25.3684802 16.3933528,24.166194 13.0389241,24.166194 C9.68449529,24.166194 6.8290656,22.9819421 4.47254933,20.6134028 C2.11603306,18.2448635 0.937792602,15.4014566 0.937792602,12.083097 C0.937792602,8.76473734 2.11603306,5.92133052 4.47254933,3.5527912 C6.8290656,1.18425189 9.67848386,0 13.0208896,0 C17.6136917,0 21.0882988,1.99579507 23.4448151,5.98744508 C23.5890916,6.20385983 23.6612287,6.43229421 23.6612287,6.67275505 C23.6612287,7.49032192 23.2163828,7.89909923 22.3266777,7.89909923 C22.0140786,7.89909923 21.461027,7.44223048 20.6675062,6.52847927 C19.6816167,5.35022113 18.7678792,4.48457508 17.9262663,3.93151514 C16.5075473,2.99371785 14.8724381,2.52482624 13.0208896,2.52482624 C10.3758203,2.52482624 8.12153371,3.46260946 6.25796217,5.33820404 C4.39439063,7.21379863 3.46261884,9.46207379 3.46261884,12.083097 C3.46261884,14.7041202 4.39439063,16.9523954 6.25796217,18.8279899 C8.12153371,20.7035845 10.3758203,21.6413677 13.0208896,21.6413677 C17.0846779,21.6413677 20.5652964,23.0841112 23.4628495,25.9696413 C26.3604027,28.8551714 27.8091575,32.3418014 27.8091575,36.4296357 Z M55.9430356,47.611009 C55.9430356,47.875516 55.8107841,48.1640646 55.5462772,48.4766637 C54.0073278,50.3041662 51.7951212,51.2179037 48.9095911,51.2179037 C46.3366601,51.2179037 44.1304649,50.2981547 42.2909395,48.4586293 C40.451414,46.6191038 39.5316651,44.4129087 39.5316651,41.8399776 L39.5316651,18.755852 L32.6785653,18.755852 C31.8369523,18.755852 31.4161522,18.3350519 31.4161522,17.4934389 C31.4161522,16.651826 31.8369523,16.2310258 32.6785653,16.2310258 L39.5316651,16.2310258 L39.5316651,1.26241312 C39.5316651,0.420800165 39.9524652,0 40.7940782,0 C41.6356911,0 42.0564913,0.420800165 42.0564913,1.26241312 L42.0564913,16.2310258 L48.9095911,16.2310258 C49.7512041,16.2310258 50.1720042,16.651826 50.1720042,17.4934389 C50.1720042,18.3350519 49.7512041,18.755852 48.9095911,18.755852 L42.0564913,18.755852 L42.0564913,41.8399776 C42.0564913,43.7155722 42.7297716,45.3266357 44.0763523,46.6732164 C45.422933,48.0197972 47.0339965,48.6930774 48.9095911,48.6930774 C50.1118953,48.6930774 51.3562615,48.296323 52.642727,47.5028022 C53.9291925,46.7092814 54.5964614,46.312527 54.6445535,46.312527 C55.5102126,46.312527 55.9430356,46.74535 55.9430356,47.611009 Z M85.5196715,39.1348067 C85.5196715,42.4531663 84.3354196,45.2965731 81.9668803,47.6651125 C79.598341,50.0336518 76.7549342,51.2179037 73.4365745,51.2179037 C70.1182149,51.2179037 67.2748081,50.0336518 64.9062688,47.6651125 C62.5377294,45.2965731 61.3534775,42.4531663 61.3534775,39.1348067 L61.3534775,17.4934389 C61.3534775,16.651826 61.7742777,16.2310258 62.6158907,16.2310258 C63.4575036,16.2310258 63.8783038,16.651826 63.8783038,17.4934389 L63.8783038,39.1348067 C63.8783038,41.7558299 64.816087,44.004105 66.6916816,45.8796996 C68.5672762,47.7552942 70.8155513,48.6930774 73.4365745,48.6930774 C76.0575977,48.6930774 78.3058729,47.7552942 80.1814675,45.8796996 C82.0570621,44.004105 82.9948453,41.7558299 82.9948453,39.1348067 L82.9948453,17.4934389 C82.9948453,16.651826 83.4156455,16.2310258 84.2572584,16.2310258 C85.0988714,16.2310258 85.5196715,16.651826 85.5196715,17.4934389 L85.5196715,39.1348067 Z M125.916991,49.9554905 C125.916991,50.7971035 125.496191,51.2179037 124.654578,51.2179037 C123.812965,51.2179037 123.392165,50.7971035 123.392165,49.9554905 L123.392165,42.7777702 C121.805124,45.3987934 119.677077,47.4607142 117.007962,48.9635945 C114.338846,50.4664748 111.477405,51.2179037 108.423552,51.2179037 C103.590289,51.2179037 99.4664478,49.5106573 96.0519038,46.0961133 C92.6373598,42.6815693 90.9301135,38.5577277 90.9301135,33.7244647 C90.9301135,28.8912018 92.6373598,24.7673602 96.0519038,21.3528162 C99.4664478,17.9382722 103.590289,16.2310258 108.423552,16.2310258 C111.477405,16.2310258 114.338846,16.9824547 117.007962,18.4853349 C119.677077,19.9882152 121.805124,22.050136 123.392165,24.6711592 L123.392165,1.26241312 C123.392165,0.420800165 123.812965,0 124.654578,0 C125.496191,0 125.916991,0.420800165 125.916991,1.26241312 L125.916991,49.9554905 Z M123.392165,33.7244647 C123.392165,29.5885382 121.931387,26.0598283 119.009788,23.138229 C116.088189,20.2166298 112.559479,18.755852 108.423552,18.755852 C104.287626,18.755852 100.758916,20.2166298 97.8373167,23.138229 C94.9157174,26.0598283 93.4549397,29.5885382 93.4549397,33.7244647 C93.4549397,37.8603912 94.9157174,41.3891012 97.8373167,44.3107005 C100.758916,47.2322997 104.287626,48.6930774 108.423552,48.6930774 C112.559479,48.6930774 116.088189,47.2322997 119.009788,44.3107005 C121.931387,41.3891012 123.392165,37.8603912 123.392165,33.7244647 Z M140.66929,2.66910202 C140.66929,4.37637401 139.779599,5.2299972 138.000188,5.2299972 C136.220778,5.2299972 135.331086,4.37637401 135.331086,2.66910202 C135.331086,1.94771949 135.595589,1.32253067 136.124603,0.793516817 C136.653617,0.264502961 137.278806,0 138.000188,0 C138.721571,0 139.34676,0.264502961 139.875774,0.793516817 C140.404787,1.32253067 140.66929,1.94771949 140.66929,2.66910202 Z M139.262601,17.4934389 L139.262601,49.9554905 C139.262601,50.7971035 138.841801,51.2179037 138.000188,51.2179037 C137.158575,51.2179037 136.737775,50.7971035 136.737775,49.9554905 L136.737775,17.4934389 C136.737775,16.651826 137.158575,16.2310258 138.000188,16.2310258 C138.841801,16.2310258 139.262601,16.651826 139.262601,17.4934389 Z M181.463369,33.7244647 C181.463369,38.5577277 179.756122,42.6815693 176.341578,46.0961133 C172.927034,49.5106573 168.803193,51.2179037 163.96993,51.2179037 C159.136667,51.2179037 155.012825,49.5106573 151.598281,46.0961133 C148.183737,42.6815693 146.476491,38.5577277 146.476491,33.7244647 C146.476491,28.8912018 148.183737,24.7673602 151.598281,21.3528162 C155.012825,17.9382722 159.136667,16.2310258 163.96993,16.2310258 C168.803193,16.2310258 172.927034,17.9382722 176.341578,21.3528162 C179.756122,24.7673602 181.463369,28.8912018 181.463369,33.7244647 Z M178.938542,33.7244647 C178.938542,29.5885382 177.477765,26.0598283 174.556165,23.138229 C171.634566,20.2166298 168.105856,18.755852 163.96993,18.755852 C159.834003,18.755852 156.305293,20.2166298 153.383694,23.138229 C150.462095,26.0598283 149.001317,29.5885382 149.001317,33.7244647 C149.001317,37.8603912 150.462095,41.3891012 153.383694,44.3107005 C156.305293,47.2322997 159.834003,48.6930774 163.96993,48.6930774 C168.105856,48.6930774 171.634566,47.2322997 174.556165,44.3107005 C177.477765,41.3891012 178.938542,37.8603912 178.938542,33.7244647 Z" id="Studio" fill="#00A3DA"></path>
                <path d="M218.576536,36.4657046 C218.576536,40.553539 217.133792,44.0401689 214.248262,46.9256991 C211.362732,49.8112292 207.864079,51.2539726 203.752199,51.2539726 L190.262413,51.2179037 C189.4208,51.2179037 189,50.7971035 189,49.9554905 L189,1.26241312 C189,0.420800165 189.4208,0 190.262413,0 L203.788268,0 C207.106628,0 209.950034,1.18425189 212.318574,3.5527912 C214.687113,5.92133052 215.871365,8.76473734 215.871365,12.083097 C215.871365,16.940406 213.731296,20.4991731 209.451093,22.7595051 C212.192346,23.9137171 214.398541,25.7351807 216.069744,28.2239504 C217.740947,30.7127202 218.576536,33.4599441 218.576536,36.4657046 Z M213.346539,12.083097 C213.346539,9.46207379 212.408755,7.21379863 210.533161,5.33820404 C208.657566,3.46260946 206.409291,2.52482624 203.788268,2.52482624 L191.524826,2.52482624 L191.524826,21.6413677 L203.788268,21.6413677 C206.409291,21.6413677 208.657566,20.7035845 210.533161,18.8279899 C212.408755,16.9523954 213.346539,14.7041202 213.346539,12.083097 Z M216.05171,36.4657046 C216.05171,33.0752067 214.849423,30.177697 212.444815,27.7730886 C210.040207,25.3684802 207.15472,24.166194 203.788268,24.166194 L191.524826,24.166194 L191.524826,48.6930774 L203.788268,48.7291464 C207.178766,48.7291464 210.070264,47.5268602 212.46285,45.1222517 C214.855435,42.7176433 216.05171,39.8321565 216.05171,36.4657046 Z M257.170208,33.7244647 C257.170208,38.5577277 255.462962,42.6815693 252.048418,46.0961133 C248.633874,49.5106573 244.510032,51.2179037 239.676769,51.2179037 C234.843507,51.2179037 230.719665,49.5106573 227.305121,46.0961133 C223.890577,42.6815693 222.183331,38.5577277 222.183331,33.7244647 C222.183331,28.8912018 223.890577,24.7673602 227.305121,21.3528162 C230.719665,17.9382722 234.843507,16.2310258 239.676769,16.2310258 C244.510032,16.2310258 248.633874,17.9382722 252.048418,21.3528162 C255.462962,24.7673602 257.170208,28.8912018 257.170208,33.7244647 Z M254.645382,33.7244647 C254.645382,29.5885382 253.184604,26.0598283 250.263005,23.138229 C247.341406,20.2166298 243.812696,18.755852 239.676769,18.755852 C235.540843,18.755852 232.012133,20.2166298 229.090534,23.138229 C226.168934,26.0598283 224.708157,29.5885382 224.708157,33.7244647 C224.708157,37.8603912 226.168934,41.3891012 229.090534,44.3107005 C232.012133,47.2322997 235.540843,48.6930774 239.676769,48.6930774 C243.812696,48.6930774 247.341406,47.2322997 250.263005,44.3107005 C253.184604,41.3891012 254.645382,37.8603912 254.645382,33.7244647 Z M295.763881,33.7244647 C295.763881,38.5577277 294.056634,42.6815693 290.64209,46.0961133 C287.227547,49.5106573 283.103705,51.2179037 278.270442,51.2179037 C273.437179,51.2179037 269.313337,49.5106573 265.898793,46.0961133 C262.484249,42.6815693 260.777003,38.5577277 260.777003,33.7244647 C260.777003,28.8912018 262.484249,24.7673602 265.898793,21.3528162 C269.313337,17.9382722 273.437179,16.2310258 278.270442,16.2310258 C283.103705,16.2310258 287.227547,17.9382722 290.64209,21.3528162 C294.056634,24.7673602 295.763881,28.8912018 295.763881,33.7244647 Z M293.239055,33.7244647 C293.239055,29.5885382 291.778277,26.0598283 288.856678,23.138229 C285.935078,20.2166298 282.406368,18.755852 278.270442,18.755852 C274.134515,18.755852 270.605805,20.2166298 267.684206,23.138229 C264.762607,26.0598283 263.301829,29.5885382 263.301829,33.7244647 C263.301829,37.8603912 264.762607,41.3891012 267.684206,44.3107005 C270.605805,47.2322997 274.134515,48.6930774 278.270442,48.6930774 C282.406368,48.6930774 285.935078,47.2322997 288.856678,44.3107005 C291.778277,41.3891012 293.239055,37.8603912 293.239055,33.7244647 Z M324.294317,49.9554905 C324.294317,50.8211496 323.861494,51.2539726 322.995835,51.2539726 C322.65919,51.2539726 322.358619,51.1217211 322.094112,50.8572142 L305.863086,34.6261884 C305.598579,34.3616815 305.466327,34.0851556 305.466327,33.7966026 C305.466327,33.4118653 305.598579,33.087248 305.863086,32.8227411 L322.094112,16.5917153 C322.358619,16.3272083 322.65919,16.1949569 322.995835,16.1949569 C323.861494,16.1949569 324.294317,16.6277799 324.294317,17.4934389 C324.294317,17.8300841 324.162066,18.1306557 323.897559,18.3951626 L308.532188,33.7244647 L323.897559,49.0537669 C324.162066,49.3182738 324.294317,49.6188454 324.294317,49.9554905 Z M305.502396,1.26241312 L305.502396,49.9554905 C305.502396,50.7971035 305.081596,51.2179037 304.239983,51.2179037 C303.39837,51.2179037 302.97757,50.7971035 302.97757,49.9554905 L302.97757,1.26241312 C302.97757,0.420800165 303.39837,0 304.239983,0 C305.081596,0 305.502396,0.420800165 305.502396,1.26241312 Z M335.439522,2.66910202 C335.439522,4.37637401 334.54983,5.2299972 332.77042,5.2299972 C330.991009,5.2299972 330.101318,4.37637401 330.101318,2.66910202 C330.101318,1.94771949 330.365821,1.32253067 330.894834,0.793516817 C331.423848,0.264502961 332.049037,0 332.77042,0 C333.491802,0 334.116991,0.264502961 334.646005,0.793516817 C335.175019,1.32253067 335.439522,1.94771949 335.439522,2.66910202 Z M334.032833,17.4934389 L334.032833,49.9554905 C334.032833,50.7971035 333.612033,51.2179037 332.77042,51.2179037 C331.928807,51.2179037 331.508007,50.7971035 331.508007,49.9554905 L331.508007,17.4934389 C331.508007,16.651826 331.928807,16.2310258 332.77042,16.2310258 C333.612033,16.2310258 334.032833,16.651826 334.032833,17.4934389 Z M369.019611,49.9554905 C369.019611,50.7971035 368.598811,51.2179037 367.757198,51.2179037 C366.915585,51.2179037 366.494784,50.7971035 366.494784,49.9554905 L366.494784,28.3141228 C366.494784,25.6930996 365.557001,23.4448244 363.681407,21.5692298 C361.805812,19.6936353 359.557537,18.755852 356.936514,18.755852 C354.31549,18.755852 352.067215,19.6936353 350.191621,21.5692298 C348.316026,23.4448244 347.378243,25.6930996 347.378243,28.3141228 L347.378243,49.9554905 C347.378243,50.7971035 346.957443,51.2179037 346.11583,51.2179037 C345.274217,51.2179037 344.853417,50.7971035 344.853417,49.9554905 L344.853417,17.4934389 C344.853417,16.651826 345.274217,16.2310258 346.11583,16.2310258 C346.957443,16.2310258 347.378243,16.651826 347.378243,17.4934389 L347.378243,20.9199888 C349.806897,17.7939978 352.992956,16.2310258 356.936514,16.2310258 C360.254873,16.2310258 363.09828,17.4152777 365.466819,19.783817 C367.835359,22.1523563 369.019611,24.9957632 369.019611,28.3141228 L369.019611,49.9554905 Z M404.006389,17.4934389 C404.006389,18.3350519 403.585588,18.755852 402.743975,18.755852 L396.612255,18.755852 C399.738246,21.1845066 401.301218,24.370565 401.301218,28.3141228 C401.301218,33.1473858 399.161148,36.7061529 394.880945,38.9905309 C397.622199,40.1447429 399.828394,41.9662065 401.499597,44.4549762 C403.1708,46.943746 404.006389,49.678947 404.006389,52.6606615 C404.006389,56.7484959 402.563645,60.2351258 399.678115,63.1206559 C396.792585,66.006186 393.305955,67.4489295 389.218121,67.4489295 C385.130286,67.4489295 381.643656,66.006186 378.758126,63.1206559 C375.872596,60.2351258 374.429853,56.7484959 374.429853,52.6606615 C374.429853,51.8190486 374.850653,51.3982484 375.692266,51.3982484 C376.533879,51.3982484 376.954679,51.8190486 376.954679,52.6606615 C376.954679,56.0271133 378.156965,58.9126002 380.561573,61.3172086 C382.966182,63.721817 385.851669,64.9241032 389.218121,64.9241032 C392.584572,64.9241032 395.470059,63.721817 397.874668,61.3172086 C400.279276,58.9126002 401.481562,56.0271133 401.481562,52.6606615 C401.481562,49.2942097 400.279276,46.4087228 397.874668,44.0041144 C395.470059,41.599506 392.596595,40.3972198 389.25419,40.3972198 C385.911784,40.3972198 383.056354,39.2129679 380.687815,36.8444286 C378.319275,34.4758893 377.135024,31.6324824 377.135024,28.3141228 C377.135024,24.9957632 378.319275,22.1523563 380.687815,19.783817 C383.056354,17.4152777 385.899761,16.2310258 389.218121,16.2310258 L402.743975,16.2310258 C403.585588,16.2310258 404.006389,16.651826 404.006389,17.4934389 Z M398.776391,28.3141228 C398.776391,25.6930996 397.838608,23.4448244 395.963014,21.5692298 C394.087419,19.6936353 391.839144,18.755852 389.218121,18.755852 C386.597097,18.755852 384.348822,19.6936353 382.473228,21.5692298 C380.597633,23.4448244 379.65985,25.6930996 379.65985,28.3141228 C379.65985,30.935146 380.597633,33.1834212 382.473228,35.0590157 C384.348822,36.9346103 386.597097,37.8723935 389.218121,37.8723935 C391.839144,37.8723935 394.087419,36.9346103 395.963014,35.0590157 C397.838608,33.1834212 398.776391,30.935146 398.776391,28.3141228 Z M428.461034,40.5054266 C428.461034,43.4390489 427.415045,45.9578385 425.323036,48.0618709 C423.231026,50.1659032 420.706225,51.2179037 417.748557,51.2179037 C415.512271,51.2179037 413.480408,50.5867034 411.652905,49.324284 C409.825403,48.0618645 408.514911,46.3846753 407.72139,44.292666 C407.649252,44.1483895 407.613183,43.9920923 407.613183,43.8237697 C407.613183,43.0062028 408.058029,42.5974255 408.947734,42.5974255 C409.40461,42.5974255 409.777318,42.8739513 410.065871,43.4270113 C410.234194,43.7636565 410.51072,44.2926624 410.895457,45.0140449 C412.458453,47.4667455 414.742796,48.6930774 417.748557,48.6930774 C420.008889,48.6930774 421.938558,47.8875457 423.537623,46.276458 C425.136688,44.6653704 425.936208,42.7417125 425.936208,40.5054266 C425.936208,38.1489104 425.094607,36.1891839 423.411382,34.6261884 C421.728156,33.0631929 419.708315,32.2817069 417.351799,32.2817069 C415.187651,32.2817069 413.342142,31.488198 411.815215,29.9011564 C410.288289,28.3141149 409.524837,26.4385484 409.524837,24.2744008 C409.524837,22.0621611 410.312335,20.1685603 411.887353,18.5935418 C413.462372,17.0185233 415.355973,16.2310258 417.568212,16.2310258 C420.646111,16.2310258 422.954501,17.5535406 424.49345,20.1986099 C424.61368,20.4390707 424.673795,20.6675051 424.673795,20.8839199 C424.673795,21.7014867 424.240972,22.110264 423.375313,22.110264 C423.182944,22.110264 422.539721,21.551201 421.445624,20.433058 C420.351527,19.3149151 419.05907,18.755852 417.568212,18.755852 C416.053309,18.755852 414.75484,19.2968808 413.672766,20.3789546 C412.590692,21.4610284 412.049664,22.7594975 412.049664,24.2744008 C412.049664,25.9095346 412.626761,27.2320494 413.780973,28.2419849 C414.935185,29.2519204 416.353883,29.7568806 418.037109,29.7568806 C420.922639,29.7568806 423.381314,30.8209039 425.413208,32.9489824 C427.445102,35.0770609 428.461034,37.5958504 428.461034,40.5054266 Z" id="Bookings" fill="#71B844"></path>
            </g>
            <path d="M99.938,49.969 C99.938,77.567 77.566,99.938 49.969,99.938 C22.371,99.938 0,77.567 0,49.969 C0,22.371 22.371,0 49.969,0 C77.566,0 99.938,22.371 99.938,49.969" id="Fill-1" fill="#00A3DA"></path>
            <path d="M67.994,72.522 C62.638,72.522 58.299,68.181 58.299,62.827 L58.299,53.132 L67.994,53.132 C73.347,53.132 77.688,57.473 77.688,62.827 C77.688,68.181 73.347,72.522 67.994,72.522 Z M58.299,37.11 C58.299,31.756 62.638,27.416 67.994,27.416 C73.347,27.416 77.687,31.756 77.687,37.11 C77.687,42.466 73.347,46.806 67.994,46.806 L58.299,46.806 L58.299,37.11 Z M77.521,49.969 C81.454,47.049 84.015,42.384 84.015,37.11 C84.015,28.262 76.841,21.089 67.994,21.089 C59.144,21.089 51.971,28.262 51.971,37.11 L51.971,62.827 C51.971,71.676 59.144,78.848 67.994,78.848 C76.841,78.848 84.015,71.676 84.015,62.827 C84.015,57.552 81.454,52.889 77.521,49.969 L77.521,49.969 Z" id="Fill-2" fill="#FFFFFE"></path>
            <path d="M31.953,21.089 C31.95,21.089 31.947,21.089 31.945,21.089 C23.098,21.089 15.924,28.262 15.924,37.11 C15.924,40.756 17.142,44.113 19.193,46.806 C22.117,50.648 26.736,53.128 31.936,53.132 C31.941,53.132 31.941,53.132 31.945,53.132 L31.953,53.132 C37.305,53.136 41.64,57.475 41.64,62.827 C41.64,68.181 37.301,72.522 31.945,72.522 C26.592,72.522 22.25,68.181 22.25,62.827 L22.25,53.132 L15.924,53.132 L15.924,62.827 C15.924,71.676 23.098,78.848 31.945,78.848 C40.793,78.848 47.967,71.676 47.966,62.827 C47.966,59.181 46.748,55.824 44.697,53.132 C41.77,49.288 37.148,46.806 31.945,46.806 C26.592,46.806 22.25,42.466 22.25,37.11 C22.25,31.756 26.592,27.416 31.945,27.416 C32.134,27.416 32.319,27.434 32.506,27.443 C32.648,27.453 32.797,27.453 32.939,27.466 C33.142,27.488 33.34,27.526 33.539,27.557 C33.66,27.578 33.781,27.588 33.902,27.614 C34.113,27.657 34.32,27.718 34.527,27.775 C34.627,27.802 34.73,27.822 34.83,27.851 C35.057,27.923 35.274,28.009 35.492,28.095 C35.566,28.125 35.646,28.146 35.721,28.179 C36,28.296 36.273,28.429 36.539,28.574 C36.547,28.577 36.557,28.581 36.566,28.586 C36.838,28.733 37.1,28.894 37.354,29.064 C37.358,29.068 37.363,29.068 37.367,29.072 C37.614,29.239 37.853,29.42 38.084,29.608 C38.094,29.616 38.103,29.622 38.113,29.629 C39.305,30.615 40.258,31.878 40.871,33.322 C40.873,33.326 40.877,33.331 40.879,33.337 C40.99,33.605 41.09,33.879 41.179,34.158 C41.186,34.18 41.197,34.203 41.204,34.226 C41.488,35.137 41.64,36.105 41.64,37.11 L41.64,46.806 L47.967,46.806 L47.967,37.11 C47.967,28.264 40.797,21.094 31.953,21.089" id="Fill-3" fill="#FFFFFE"></path>
        </g>
    </g>
</svg>