<?xml version="1.0" encoding="UTF-8"?>
<svg width="491px" height="591px" viewBox="0 0 491 591" version="1.1" xmlns="http://www.w3.org/2000/svg" xmlns:xlink="http://www.w3.org/1999/xlink">
    <!-- Generator: Sketch 53.2 (72643) - https://sketchapp.com -->
    <title>Group</title>
    <desc>Created with Sketch.</desc>
    <defs>
        <linearGradient x1="29.9624742%" y1="0%" x2="74.5011692%" y2="94.2254372%" id="linearGradient-1">
            <stop stop-color="#8834FF" offset="0%"></stop>
            <stop stop-color="#C96DFB" offset="100%"></stop>
        </linearGradient>
        <linearGradient x1="15.7435633%" y1="27.1246894%" x2="91.8875445%" y2="70.2334123%" id="linearGradient-2">
            <stop stop-color="#8834FF" offset="0%"></stop>
            <stop stop-color="#C96DFB" offset="100%"></stop>
        </linearGradient>
    </defs>
    <g id="Website" stroke="none" stroke-width="1" fill="none" fill-rule="evenodd">
        <g id="Features" transform="translate(-868.000000, -478.000000)">
            <g id="Section/Header" transform="translate(135.000000, 50.000000)">
                <g id="Group" transform="translate(718.581502, 428.000000)">
                    <path d="M397.349311,21.5106117 C298.7613,-40.4747795 118.856911,38.0797132 60.025831,172.972818 C32.1871554,236.803796 91.4944895,298.519087 105.660993,367.561673 C121.432362,444.425809 124.976186,560.081839 237.759543,584.323791 C350.5429,608.565744 415.618225,571.543454 476.244435,394.218448 C536.870644,216.893443 495.937321,83.4960029 397.349311,21.5106117 Z" id="shape" fill="url(#linearGradient-1)" opacity="0.100000001"></path>
                    <path d="M61.2140329,323.545199 C85.2503369,328.832492 109.196674,365.24358 89.0771162,382.881494 C67.0710714,402.173208 5.31348647,381.464873 -2.32026281,362.776709 C-13.8826371,334.470887 37.177729,318.257906 61.2140329,323.545199 Z" id="shape" fill="url(#linearGradient-2)" opacity="0.200000003" transform="translate(46.303729, 356.576829) rotate(-285.000000) translate(-46.303729, -356.576829) "></path>
                </g>
            </g>
        </g>
    </g>
</svg>