<?xml version="1.0" standalone="no"?>
<!DOCTYPE svg PUBLIC "-//W3C//DTD SVG 1.1//EN" "http://www.w3.org/Graphics/SVG/1.1/DTD/svg11.dtd" >
<svg xmlns="http://www.w3.org/2000/svg">
<metadata>Generated by IcoMoon</metadata>
<defs>
<font id="studiobookings" horiz-adv-x="1024">
<font-face units-per-em="1024" ascent="960" descent="-64" />
<missing-glyph horiz-adv-x="1024" />
<glyph unicode="&#x20;" horiz-adv-x="512" d="" />
<glyph unicode="&#xe900;" glyph-name="alarm" horiz-adv-x="896" d="M320 64c0 17.673 14.327 32 32 32s32-14.327 32-32c0-35.346 28.654-64 64-64s64 28.654 64 64c0 17.673 14.327 32 32 32s32-14.327 32-32c0-70.692-57.308-128-128-128s-128 57.308-128 128zM891.44 176.464c12.797-21.329-2.566-48.464-27.44-48.464h-832c-24.873 0-40.237 27.135-27.44 48.464 2.719 4.531 7.69 13.289 14.159 25.509 10.861 20.516 21.735 42.989 31.869 66.633 17.86 41.672 31.408 82.317 38.923 119.893 4.275 21.375 6.49 41.307 6.49 59.502v160c0 194.404 157.596 352 352 352s352-157.596 352-352v-160c0-18.195 2.215-38.127 6.49-59.502 7.515-37.575 21.063-78.22 38.923-119.893 10.133-23.644 21.007-46.117 31.869-66.633 6.469-12.219 11.44-20.977 14.159-25.509zM786.587 243.395c-19.474 45.439-34.37 90.127-42.855 132.552-5.058 25.291-7.733 49.36-7.733 72.054v160c0 159.058-128.942 288-288 288s-288-128.942-288-288v-160c0-22.694-2.674-46.762-7.733-72.054-8.485-42.425-23.381-87.113-42.855-132.552-7.661-17.875-15.699-35.090-23.853-51.395h724.881c-8.154 16.304-16.192 33.519-23.853 51.395z" />
<glyph unicode="&#xe901;" glyph-name="calendar" d="M736 784h-448v-64c0-17.673-14.327-32-32-32s-32 14.327-32 32v64h-96c-35.346 0-64-28.654-64-64v-128h896v128c0 35.346-28.654 64-64 64h-96v-64c0-17.673-14.327-32-32-32s-32 14.327-32 32v64zM800 848h96c70.692 0 128-57.308 128-128v-640c0-70.692-57.308-128-128-128h-768c-70.692 0-128 57.308-128 128v640c0 70.692 57.308 128 128 128h96v64c0 17.673 14.327 32 32 32s32-14.327 32-32v-64h448v64c0 17.673 14.327 32 32 32s32-14.327 32-32v-64zM960 528h-896v-448c0-35.346 28.654-64 64-64h768c35.346 0 64 28.654 64 64v448zM681.373 422.627c12.497 12.497 32.758 12.497 45.255 0s12.497-32.758 0-45.255l-256-256c-12.497-12.497-32.758-12.497-45.255 0l-128 128c-12.497 12.497-12.497 32.758 0 45.255s32.758 12.497 45.255 0l105.373-105.373 233.373 233.373z" />
<glyph unicode="&#xe902;" glyph-name="chart" d="M32-32c-17.673 0-32 14.327-32 32s14.327 32 32 32h960c17.673 0 32-14.327 32-32s-14.327-32-32-32h-960zM96 512v-352h128v352h-128zM64 576h192c17.673 0 32-14.327 32-32v-416c0-17.673-14.327-32-32-32h-192c-17.673 0-32 14.327-32 32v416c0 17.673 14.327 32 32 32zM448 864v-704h128v704h-128zM416 928h192c17.673 0 32-14.327 32-32v-768c0-17.673-14.327-32-32-32h-192c-17.673 0-32 14.327-32 32v768c0 17.673 14.327 32 32 32zM800 352v-192h128v192h-128zM768 416h192c17.673 0 32-14.327 32-32v-256c0-17.673-14.327-32-32-32h-192c-17.673 0-32 14.327-32 32v256c0 17.673 14.327 32 32 32z" />
<glyph unicode="&#xe903;" glyph-name="check" d="M340.617-64c-22.652 0.005-44.375 9.816-60.39 27.274l-256.25 279.258c-32.371 36.525-31.908 94.583 1.040 130.49s86.223 36.411 119.739 1.134l187.916-204.789 538.381 754.647c28.965 40.614 82.657 47.949 119.925 16.383s43.998-90.079 15.033-130.693l-597.916-837.773c-15.026-21.16-37.68-34.25-62.183-35.931h-5.296z" />
<glyph unicode="&#xe904;" glyph-name="checkmark-filled" d="M512 960c282.429-0.82 511.18-229.571 512-512 0-282.77-229.23-512-512-512s-512 229.23-512 512c0 282.77 229.23 512 512 512zM443.447 243.2h2.118c9.801 0.673 18.863 5.909 24.873 14.372l239.166 335.109c11.586 16.246 8.894 39.651-6.013 52.277s-36.384 9.692-47.97-6.553l-215.352-301.859-75.167 81.916c-13.406 14.111-34.716 13.909-47.895-0.454s-13.364-37.586-0.416-52.196l102.5-111.703c6.406-6.983 15.095-10.908 24.156-10.91z" />
<glyph unicode="&#xe905;" glyph-name="chevron-left" d="M789.208 110.808c39.99-39.99 39.99-104.826 0-144.815s-104.826-39.99-144.816 0l-409.6 409.6c-39.99 39.99-39.99 104.826 0 144.815l409.6 409.6c39.99 39.99 104.826 39.99 144.816 0s39.99-104.826 0-144.815l-337.192-337.192 337.192-337.192z" />
<glyph unicode="&#xe906;" glyph-name="chevron-right" d="M234.792 785.192c-39.99 39.99-39.99 104.826 0 144.815s104.826 39.99 144.816 0l409.6-409.6c39.99-39.99 39.99-104.826 0-144.815l-409.6-409.6c-39.99-39.99-104.826-39.99-144.816 0s-39.99 104.826 0 144.815l337.192 337.192-337.192 337.192z" />
<glyph unicode="&#xe907;" glyph-name="credit-card" d="M64 672h896v64c0 17.687-14.313 32-32 32h-832c-17.687 0-32-14.313-32-32v-64zM960 608h-896v-96h896v96zM960 448h-896v-288c0-17.687 14.313-32 32-32h832c17.687 0 32 14.313 32 32v288zM160 256c-17.673 0-32 14.327-32 32s14.327 32 32 32h224c17.673 0 32-14.327 32-32s-14.327-32-32-32h-224zM800 256c-17.673 0-32 14.327-32 32s14.327 32 32 32h64c17.673 0 32-14.327 32-32s-14.327-32-32-32h-64zM0 160v576c0 53.033 42.967 96 96 96h832c53.033 0 96-42.967 96-96v-576c0-53.033-42.967-96-96-96h-832c-53.033 0-96 42.967-96 96z" />
<glyph unicode="&#xe908;" glyph-name="exclamation-filled" d="M512 960c282.429-0.82 511.18-229.571 512-512 0-282.77-229.23-512-512-512s-512 229.23-512 512c0 282.77 229.23 512 512 512zM563.927 738.789h-102.327l10.945-364.763h80.182l11.2 364.763zM512 159.408c33.855 0 58.036 24.182 58.036 55.491 0 31.564-24.182 56-58.036 56-34.109 0-57.527-24.436-57.527-56 0-31.309 23.418-55.491 57.527-55.491z" />
<glyph unicode="&#xe909;" glyph-name="facebook" d="M985.142 960h-943.426c-22.463 0-41.716-19.2-41.716-41.6v-937.6c0-25.6 19.254-44.8 41.716-44.8h503.802v384h-128.357v160h128.357v128c0 131.2 83.432 198.4 202.163 198.4 57.761 0 105.895-6.4 118.73-6.4v-137.6h-83.432c-64.179 0-80.223-32-80.223-76.8v-105.6h160.447l-32.089-160h-128.357l3.209-384h275.968c22.463 0 41.716 19.2 41.716 41.6v940.8c3.209 22.4-16.045 41.6-38.507 41.6z" />
<glyph unicode="&#xe90a;" glyph-name="instagram" d="M512 867.744c-136.704 0-152.896-0.512-206.88-2.976-58.272-2.656-112.352-14.336-153.952-55.936s-53.28-95.68-55.936-153.952c-2.464-53.984-2.976-70.176-2.976-206.88s0.512-152.896 2.976-206.88c2.656-58.272 14.336-112.352 55.936-153.952s95.68-53.28 153.952-55.936c53.984-2.464 70.176-2.976 206.88-2.976s152.896 0.512 206.88 2.976c58.272 2.656 112.352 14.336 153.952 55.936s53.28 95.68 55.936 153.952c2.464 53.984 2.976 70.176 2.976 206.88s-0.512 152.896-2.976 206.88c-2.656 58.272-14.336 112.352-55.936 153.952s-95.68 53.28-153.952 55.936c-53.984 2.464-70.176 2.976-206.88 2.976zM512 960c139.040 0 156.48-0.576 211.104-3.072 83.232-3.808 156.32-24.192 214.976-82.848 58.656-58.688 79.040-131.776 82.848-214.976 2.496-54.624 3.072-72.064 3.072-211.104s-0.576-156.48-3.072-211.104c-3.808-83.232-24.192-156.32-82.848-214.976-58.688-58.656-131.776-79.040-214.976-82.848-54.624-2.496-72.064-3.072-211.104-3.072s-156.48 0.576-211.104 3.072c-83.232 3.808-156.32 24.192-214.976 82.848-58.656 58.688-79.040 131.776-82.848 214.976-2.496 54.624-3.072 72.064-3.072 211.104s0.576 156.48 3.072 211.104c3.808 83.232 24.192 156.32 82.848 214.976 58.688 58.656 131.776 79.040 214.976 82.848 54.624 2.496 72.064 3.072 211.104 3.072zM512 710.912c145.216 0 262.912-117.696 262.912-262.912 0-145.184-117.728-262.912-262.912-262.912s-262.912 117.696-262.912 262.912c0 145.184 117.696 262.912 262.912 262.912zM512 277.344c94.272 0 170.656 76.384 170.656 170.656 0 94.24-76.384 170.656-170.656 170.656-94.24 0-170.656-76.384-170.656-170.656 0-94.24 76.384-170.656 170.656-170.656zM785.312 659.872c-33.932 0-61.44 27.508-61.44 61.44s27.508 61.44 61.44 61.44c33.932 0 61.44-27.508 61.44-61.44s-27.508-61.44-61.44-61.44z" />
<glyph unicode="&#xe90b;" glyph-name="lock-filled" d="M512 960c-140.8 0-256-115.2-256-256v-64h-128c-38.4 0-64-25.6-64-64v-576c0-38.4 25.6-64 64-64h768c38.4 0 64 25.6 64 64v576c0 38.4-25.6 64-64 64h-128v64c0 140.8-115.2 256-256 256zM576 211.2v-83.2h-128v83.2c-38.4 19.2-64 64-64 108.8 0 70.4 57.6 128 128 128s128-57.6 128-128c0-44.8-25.6-89.6-64-108.8zM640 640h-256v64c0 70.4 57.6 128 128 128s128-57.6 128-128v-64z" />
<glyph unicode="&#xe90c;" glyph-name="lock" horiz-adv-x="896" d="M480 196.033v-68.033c0-17.673-14.327-32-32-32s-32 14.327-32 32v68.033c-55.207 14.209-96 64.325-96 123.967 0 70.692 57.308 128 128 128s128-57.308 128-128c0-59.643-40.793-109.758-96-123.967zM608 608v127.904c-0.264 88.309-71.787 159.832-159.905 160.096-88.309-0.264-159.832-71.787-160.096-160v-128h320zM224 608v128.096c0.369 123.506 100.398 223.535 224.095 223.904 123.506-0.369 223.535-100.398 223.904-224v-128h96c70.692 0 128-57.308 128-128v-416c0-70.692-57.308-128-128-128h-640c-70.692 0-128 57.308-128 128v416c0 70.692 57.308 128 128 128h96zM128 544c-35.346 0-64-28.654-64-64v-416c0-35.346 28.654-64 64-64h640c35.346 0 64 28.654 64 64v416c0 35.346-28.654 64-64 64h-640zM448 256c35.346 0 64 28.654 64 64s-28.654 64-64 64c-35.346 0-64-28.654-64-64s28.654-64 64-64z" />
<glyph unicode="&#xe90d;" glyph-name="metrics" d="M199.25 181.964l206.813 206.813c12.9 12.9 33.815 12.9 46.715 0s12.9-33.815 0-46.715l-206.813-206.813c11.624-19.671 18.294-42.617 18.294-67.12 0-72.973-59.156-132.129-132.129-132.129s-132.129 59.156-132.129 132.129c0 72.973 59.156 132.129 132.129 132.129 24.504 0 47.449-6.67 67.12-18.294zM178.262 115.419c-11.907 11.617-28.184 18.775-46.133 18.775-36.486 0-66.065-29.578-66.065-66.065s29.578-66.065 66.065-66.065c36.486 0 66.065 29.578 66.065 66.065 0 17.949-7.158 34.226-18.775 46.133-0.197 0.188-0.392 0.378-0.585 0.571s-0.384 0.389-0.571 0.585zM99.097 728.774c0 18.243 14.789 33.032 33.032 33.032s33.032-14.789 33.032-33.032v-66.065c0-18.243-14.789-33.032-33.032-33.032s-33.032 14.789-33.032 33.032v66.065zM575.914 558.629c12.9 12.9 33.815 12.9 46.715 0s12.9-33.815 0-46.715l-46.708-46.708c-12.9-12.9-33.815-12.9-46.715 0s-12.9 33.815 0 46.715l46.708 46.708zM792.774 101.161c18.243 0 33.032-14.789 33.032-33.032s-14.789-33.032-33.032-33.032h-66.065c-18.243 0-33.032 14.789-33.032 33.032s14.789 33.032 33.032 33.032h66.065zM1024 68.129c0-18.243-14.789-33.032-33.032-33.032s-33.032 14.789-33.032 33.032c0 456.067-369.739 825.806-825.806 825.806-18.243 0-33.032 14.789-33.032 33.032s14.789 33.032 33.032 33.032c492.553 0 891.871-399.318 891.871-891.871z" />
<glyph unicode="&#xe90e;" glyph-name="minus" d="M732.554 487.385c17.401 0 31.508-14.106 31.508-31.508s-14.106-31.508-31.508-31.508h-441.108c-17.401 0-31.508 14.106-31.508 31.508s14.106 31.508 31.508 31.508h441.108zM512-48.246c-278.419 0-504.123 225.704-504.123 504.123s225.704 504.123 504.123 504.123c278.419 0 504.123-225.704 504.123-504.123s-225.704-504.123-504.123-504.123zM512 14.769c243.617 0 441.108 197.491 441.108 441.108s-197.491 441.108-441.108 441.108c-243.617 0-441.108-197.491-441.108-441.108s197.491-441.108 441.108-441.108z" />
<glyph unicode="&#xe90f;" glyph-name="organization" horiz-adv-x="768" d="M288 416v64c0 17.673 14.327 32 32 32h416c17.673 0 32-14.327 32-32v-192c0-17.673-14.327-32-32-32h-416c-17.673 0-32 14.327-32 32v64h-224v-256h224v64c0 17.673 14.327 32 32 32h416c17.673 0 32-14.327 32-32v-192c0-17.673-14.327-32-32-32h-416c-17.673 0-32 14.327-32 32v64h-256c-17.673 0-32 14.327-32 32v864c0 17.673 14.327 32 32 32s32-14.327 32-32v-192h224v64c0 17.673 14.327 32 32 32h416c17.673 0 32-14.327 32-32v-192c0-17.673-14.327-32-32-32h-416c-17.673 0-32 14.327-32 32v64h-224v-256h224zM352 768v-128h352v128h-352zM352 128v-128h352v128h-352zM352 448v-128h352v128h-352z" />
<glyph unicode="&#xe910;" glyph-name="Path" d="M158.916 401.455l246.36-246.36c18.177-18.177 18.177-47.648 0-65.825s-47.648-18.177-65.825 0l-325.818 325.818c-18.177 18.177-18.177 47.648 0 65.825l325.818 325.818c18.177 18.177 47.648 18.177 65.825 0s18.177-47.648 0-65.825l-246.36-246.36h818.538c25.706 0 46.545-20.839 46.545-46.545s-20.839-46.545-46.545-46.545h-818.538z" />
<glyph unicode="&#xe911;" glyph-name="plus" d="M534.756 474.548h182.044c16.757 0 30.341-13.584 30.341-30.341s-13.584-30.341-30.341-30.341h-182.044v-182.044c0-16.757-13.584-30.341-30.341-30.341s-30.341 13.584-30.341 30.341v182.044h-182.044c-16.757 0-30.341 13.584-30.341 30.341s13.584 30.341 30.341 30.341h182.044v182.044c0 16.757 13.584 30.341 30.341 30.341s30.341-13.584 30.341-30.341v-182.044zM504.415-41.244c-268.108 0-485.452 217.344-485.452 485.452s217.344 485.452 485.452 485.452c268.108 0 485.452-217.344 485.452-485.452s-217.344-485.452-485.452-485.452zM504.415 19.437c234.594 0 424.77 190.176 424.77 424.77s-190.176 424.77-424.77 424.77c-234.594 0-424.77-190.176-424.77-424.77s190.176-424.77 424.77-424.77z" />
<glyph unicode="&#xe912;" glyph-name="profile" d="M608 448c-17.673 0-32 14.327-32 32s14.327 32 32 32h224c17.673 0 32-14.327 32-32s-14.327-32-32-32h-224zM608 288c-17.673 0-32 14.327-32 32s14.327 32 32 32h224c17.673 0 32-14.327 32-32s-14.327-32-32-32h-224zM320 416c-53.019 0-96 42.981-96 96s42.981 96 96 96c53.019 0 96-42.981 96-96s-42.981-96-96-96zM320 480c17.673 0 32 14.327 32 32s-14.327 32-32 32c-17.673 0-32-14.327-32-32s14.327-32 32-32zM352 320h-64c-41.795 0-77.356-26.716-90.536-64h245.073c-13.18 37.284-48.741 64-90.536 64zM480 192h-320c-17.673 0-32 14.327-32 32 0 88.361 71.639 160 160 160h64c88.361 0 160-71.639 160-160 0-17.673-14.327-32-32-32zM768 832c0 17.673 14.327 32 32 32h192c17.673 0 32-14.327 32-32v-768c0-17.673-14.327-32-32-32h-960c-17.673 0-32 14.327-32 32v768c0 17.673 14.327 32 32 32h192c17.673 0 32-14.327 32-32 0-35.351 28.649-64 64-64s64 28.649 64 64c0 17.673 14.327 32 32 32h192c17.673 0 32-14.327 32-32 0-35.351 28.649-64 64-64s64 28.649 64 64zM704 704c-59.647 0-109.76 40.79-123.968 96h-136.064c-14.208-55.21-64.321-96-123.968-96s-109.76 40.79-123.968 96h-132.032v-704h896v704h-132.032c-14.208-55.21-64.321-96-123.968-96z" />
<glyph unicode="&#xe913;" glyph-name="question" d="M512 960c-282.325 0-512-229.675-512-512s229.675-512 512-512c282.325 0 512 229.675 512 512s-229.675 512-512 512zM490.667 149.333c-35.328 0-64 28.672-64 64s28.672 64 64 64c35.328 0 64-28.672 64-64s-28.672-64-64-64zM674.603 527.915c-13.184-21.12-38.229-44.843-75.179-71.211-59.776-44.203-58.155-54.016-58.155-94.037h-104.832c0 31.275-0.683 55.296 16.213 84.523 10.795 18.731 30.592 38.656 59.349 59.733 34.517 24.661 68.053 48.427 68.053 89.813 0 38.784-33.195 52.608-71.979 52.608-39.552 0-84.651-12.928-135.296-38.784l-43.136 86.613c92.032 51.584 237.269 74.923 316.672 10.283 58.283-47.488 58.624-130.987 28.288-179.541z" />
<glyph unicode="&#xe914;" glyph-name="time" d="M94.133 448.67c-0.021-18.243-14.827-33.015-33.070-32.995s-33.015 14.827-32.995 33.070c0.268 236.24 167.357 439.402 399.102 485.267s463.622-78.338 553.854-296.667c90.232-218.329 13.696-469.994-182.812-601.12s-458.274-105.203-625.246 61.919c-12.894 12.906-12.885 33.821 0.021 46.715s33.821 12.885 46.715-0.021c144.699-144.829 371.546-167.294 541.841-53.66s236.621 331.729 158.426 520.934c-78.196 189.205-279.141 296.84-479.973 257.093s-345.631-215.807-345.863-420.534zM556.584 481.74h264.258c18.243 0 33.032-14.789 33.032-33.032s-14.789-33.032-33.032-33.032h-297.29c-18.243 0-33.032 14.789-33.032 33.032v297.29c0 18.243 14.789 33.032 33.032 33.032s33.032-14.789 33.032-33.032v-264.258zM116.466-5.093c-18.404-18.404-49.872-9.285-55.584 16.107l-60.053 266.934c-5.324 23.667 15.826 44.808 39.491 39.474l266.835-60.152c25.383-5.722 34.492-37.182 16.093-55.581l-206.782-206.782zM234.137 206.008l-157.39 35.48 35.421-157.448 121.968 121.968z" />
<glyph unicode="&#xe915;" d="M721.676 726.756c-7.387 6.457-17.262 7.509-25.527 2.702-8.265-4.836-13.483-14.677-13.483-25.458v-512c0-10.78 5.218-20.622 13.483-25.458 3.438-1.991 7.192-2.987 10.898-2.987 5.169 0 10.338 1.934 14.629 5.689l292.571 256c6.144 5.348 9.752 13.796 9.752 22.756s-3.608 17.38-9.752 22.756l-292.571 256z" />
<glyph unicode="&#xe916;" d="M380.343 726.756c-7.387 6.457-17.262 7.509-25.527 2.702-8.265-4.836-13.483-14.677-13.483-25.458v-512c0-10.78 5.218-20.622 13.483-25.458 3.438-1.991 7.192-2.987 10.898-2.987 5.169 0 10.338 1.934 14.629 5.689l292.571 256c6.144 5.348 9.752 13.796 9.752 22.756s-3.608 17.38-9.752 22.756l-292.571 256z" />
<glyph unicode="&#xe917;" d="M39.010 726.756c-7.387 6.457-17.262 7.509-25.527 2.702-8.265-4.836-13.483-14.677-13.483-25.458v-512c0-10.78 5.218-20.622 13.483-25.458 3.438-1.991 7.192-2.987 10.898-2.987 5.169 0 10.338 1.934 14.629 5.689l292.571 256c6.144 5.348 9.752 13.796 9.752 22.756s-3.608 17.38-9.752 22.756l-292.571 256z" />
<glyph unicode="&#xe918;" glyph-name="twitter" d="M1024 759.926c-38.28-15.754-76.561-28.357-121.221-31.508 44.66 25.206 76.561 66.166 92.511 113.428-41.47-25.206-86.131-40.96-133.981-50.412-38.28 40.96-92.511 66.166-149.931 66.166-114.841 0-210.542-91.372-210.542-207.951 0-15.754 3.19-31.508 6.38-47.262-175.452 9.452-328.573 91.372-433.844 217.403-19.14-31.508-28.71-66.166-28.71-103.975 0-72.468 38.28-135.483 92.511-173.292-35.090 0-66.991 9.452-95.701 25.206 0 0 0-3.151 0-3.151 0-100.825 73.371-182.745 169.072-201.649-19.14-3.151-35.090-6.302-54.231-6.302-12.76 0-25.52 0-38.28 3.151 25.52-81.92 105.271-141.785 194.592-144.935-70.181-56.714-162.692-88.222-261.583-88.222-15.95 0-35.090 0-51.041 3.151 95.701-56.714 207.352-91.372 325.383-91.372 385.994 0 596.536 315.077 596.536 589.194 0 9.452 0 18.905 0 25.206 38.28 31.508 73.371 66.166 102.081 107.126z" />
<glyph unicode="&#xe919;" d="M596.225 742.788c-23.258 0-42.113 18.854-42.113 42.113s18.854 42.113 42.113 42.113h379.013c23.258 0 42.113-18.854 42.113-42.113s-18.854-42.113-42.113-42.113h-379.013zM933.126 405.887c-23.258 0-42.113 18.854-42.113 42.113s18.854 42.113 42.113 42.113h42.113c23.258 0 42.113-18.854 42.113-42.113s-18.854-42.113-42.113-42.113h-42.113zM596.225 68.987c-23.258 0-42.113 18.854-42.113 42.113s18.854 42.113 42.113 42.113h379.013c23.258 0 42.113-18.854 42.113-42.113s-18.854-42.113-42.113-42.113h-379.013z" />
<glyph unicode="&#xe91a;" d="M138.294 153.212c18.7 72.654 84.652 126.338 163.143 126.338 93.032 0 168.45-75.418 168.45-168.45s-75.418-168.45-168.45-168.45c-78.491 0-144.444 53.684-163.143 126.338h-89.532c-23.258 0-42.113 18.854-42.113 42.113s18.854 42.113 42.113 42.113h89.532zM475.194 490.113c18.7 72.654 84.652 126.338 163.143 126.338 93.032 0 168.45-75.418 168.45-168.45s-75.418-168.45-168.45-168.45c-78.491 0-144.444 53.684-163.143 126.338h-426.432c-23.258 0-42.113 18.854-42.113 42.113s18.854 42.113 42.113 42.113h426.432zM138.294 827.013c18.7 72.654 84.652 126.338 163.143 126.338 93.032 0 168.45-75.418 168.45-168.45s-75.418-168.45-168.45-168.45c-78.491 0-144.444 53.684-163.143 126.338h-89.532c-23.258 0-42.113 18.854-42.113 42.113s18.854 42.113 42.113 42.113h89.532zM301.437 700.675c46.516 0 84.225 37.709 84.225 84.225s-37.709 84.225-84.225 84.225c-46.516 0-84.225-37.709-84.225-84.225s37.709-84.225 84.225-84.225zM638.338 363.775c46.516 0 84.225 37.709 84.225 84.225s-37.709 84.225-84.225 84.225c-46.516 0-84.225-37.709-84.225-84.225s37.709-84.225 84.225-84.225zM301.437 26.874c46.516 0 84.225 37.709 84.225 84.225s-37.709 84.225-84.225 84.225c-46.516 0-84.225-37.709-84.225-84.225s37.709-84.225 84.225-84.225z" />
<glyph unicode="&#xe91b;" horiz-adv-x="1155" d="M243.469 510.265h95.478c18.851 0 34.133-15.282 34.133-34.133v-48.762c0-18.851-15.282-34.133-34.133-34.133h-95.478c-18.851 0-34.133 15.282-34.133 34.133v48.762c0 18.851 15.282 34.133 34.133 34.133zM529.902 510.265h95.478c18.851 0 34.133-15.282 34.133-34.133v-48.762c0-18.851-15.282-34.133-34.133-34.133h-95.478c-18.851 0-34.133 15.282-34.133 34.133v48.762c0 18.851 15.282 34.133 34.133 34.133zM243.469 266.456h95.478c18.851 0 34.133-15.282 34.133-34.133v-48.762c0-18.851-15.282-34.133-34.133-34.133h-95.478c-18.851 0-34.133 15.282-34.133 34.133v48.762c0 18.851 15.282 34.133 34.133 34.133zM816.336 510.265h95.478c18.851 0 34.133-15.282 34.133-34.133v-48.762c0-18.851-15.282-34.133-34.133-34.133h-95.478c-18.851 0-34.133 15.282-34.133 34.133v48.762c0 18.851 15.282 34.133 34.133 34.133z" />
<glyph unicode="&#xe91c;" horiz-adv-x="1155" d="M86.646 705.313h981.99v114.198c0 33.88-27.465 61.345-61.345 61.345h-859.301c-33.88 0-61.345-27.465-61.345-61.345v-114.198zM86.646 637.046v-553.055c0-33.88 27.465-61.345 61.345-61.345h859.301c33.88 0 61.345 27.465 61.345 61.345v553.055h-981.99zM147.991 949.122h859.301c71.582 0 129.611-58.029 129.611-129.611v-735.52c0-71.582-58.029-129.611-129.611-129.611h-859.301c-71.582 0-129.611 58.029-129.611 129.611v735.52c0 71.582 58.029 129.611 129.611 129.611zM529.902 266.456h95.478c18.851 0 34.133-15.282 34.133-34.133v-48.762c0-18.851-15.282-34.133-34.133-34.133h-95.478c-18.851 0-34.133 15.282-34.133 34.133v48.762c0 18.851 15.282 34.133 34.133 34.133z" />
<glyph unicode="&#xe91d;" d="M470.109 322.327v-293.236h83.782v293.236h-83.782zM428.218 406.109h167.564c23.136 0 41.891-18.755 41.891-41.891v-377.018c0-23.136-18.755-41.891-41.891-41.891h-167.564c-23.136 0-41.891 18.755-41.891 41.891v377.018c0 23.136 18.755 41.891 41.891 41.891zM93.091 154.764v-125.673h83.782v125.673h-83.782zM51.2 238.545h167.564c23.136 0 41.891-18.755 41.891-41.891v-209.455c0-23.136-18.755-41.891-41.891-41.891h-167.564c-23.136 0-41.891 18.755-41.891 41.891v209.455c0 23.136 18.755 41.891 41.891 41.891z" />
<glyph unicode="&#xe91e;" d="M745.994 866.909h-108.321c-23.136 0-41.891 18.755-41.891 41.891s18.755 41.891 41.891 41.891h209.455c23.136 0 41.891-18.755 41.891-41.891v-209.455c0-23.136-18.755-41.891-41.891-41.891s-41.891 18.755-41.891 41.891v108.321l-263.615-263.615c-16.359-16.359-42.883-16.359-59.243 0l-137.942 137.942-179.833-179.833c-16.359-16.359-42.883-16.359-59.243 0s-16.359 42.883 0 59.243l209.455 209.455c16.359 16.359 42.883 16.359 59.243 0l137.942-137.942 233.994 233.994zM847.127 29.091h83.782v460.8h-83.782v-460.8zM805.236 573.673h167.564c23.136 0 41.891-18.755 41.891-41.891v-544.582c0-23.136-18.755-41.891-41.891-41.891h-167.564c-23.136 0-41.891 18.755-41.891 41.891v544.582c0 23.136 18.755 41.891 41.891 41.891z" />
<glyph unicode="&#xe91f;" horiz-adv-x="1218" d="M759.823 462.76c-19.87 0-35.978 16.108-35.978 35.978s16.108 35.978 35.978 35.978h201.278c19.87 0 35.978-16.108 35.978-35.978s-16.108-35.978-35.978-35.978h-201.278zM759.823 259.805c-19.87 0-35.978 16.108-35.978 35.978s16.108 35.978 35.978 35.978h201.278c19.87 0 35.978-16.108 35.978-35.978s-16.108-35.978-35.978-35.978h-201.278zM925.122 904.649c0 19.87 16.108 35.978 35.978 35.978h201.278c19.87 0 35.978-16.108 35.978-35.978v-913.297c0-19.87-16.108-35.978-35.978-35.978h-1107.027c-19.87 0-35.978 16.108-35.978 35.978v913.297c0 19.87 16.108 35.978 35.978 35.978h201.278c19.87 0 35.978-16.108 35.978-35.978 0-36.263 28.995-65.499 64.66-65.499s64.66 29.237 64.66 65.499c0 19.87 16.108 35.978 35.978 35.978h301.916c19.87 0 35.978-16.108 35.978-35.978 0-36.263 28.995-65.499 64.66-65.499s64.66 29.237 64.66 65.499zM860.462 767.193c-63.148 0-116.188 43.036-131.892 101.477h-239.411c-15.704-58.441-68.744-101.477-131.892-101.477s-116.188 43.036-131.892 101.477h-134.047v-841.341h1035.070v841.341h-134.047c-15.704-58.441-68.744-101.477-131.892-101.477z" />
<glyph unicode="&#xe920;" horiz-adv-x="1218" d="M206.31 194.306c0 84.074 67.579 152.216 150.958 152.216h100.639c83.379 0 150.958-68.142 150.958-152.216h-402.555zM407.587 397.261c-55.581 0-100.639 45.433-100.639 101.477s45.058 101.477 100.639 101.477c55.581 0 100.639-45.433 100.639-101.477s-45.058-101.477-100.639-101.477z" />
<glyph unicode="&#xe921;" glyph-name="menu-close" d="M499.381 541.072l402.265 402.265c22.217 22.216 58.237 22.216 80.453 0s22.216-58.237 0-80.453l-402.265-402.265 402.265-402.265c22.216-22.216 22.216-58.237 0-80.453s-58.237-22.216-80.453 0l-402.265 402.265-402.265-402.265c-22.217-22.216-58.237-22.216-80.453 0s-22.216 58.237 0 80.453l402.265 402.265-402.265 402.265c-22.216 22.216-22.216 58.237 0 80.453s58.237 22.216 80.453 0l402.265-402.265z" />
<glyph unicode="&#xe922;" glyph-name="star" d="M969.253 636.784l-276.224 40.128-123.584 250.304c-21.632 43.712-93.184 43.712-114.816 0l-123.52-250.304-276.288-40.128c-52.288-7.616-73.472-72.128-35.456-109.248l199.936-194.816-47.168-275.136c-8.896-52.096 45.888-92.096 92.864-67.456l247.040 129.856 247.104-129.92c46.592-24.384 101.824 14.976 92.864 67.456l-47.168 275.136 199.936 194.816c37.952 37.184 16.768 101.696-35.52 109.312z" />
<glyph unicode="&#xe923;" horiz-adv-x="672" d="M336 191.393c-94.584 0-181.692 32.265-252 85.94v-341.333l252 127.697 252-127.697v341.333c-70.308-53.675-157.416-85.94-252-85.94z" />
<glyph unicode="&#xe924;" horiz-adv-x="672" d="M672 618.667c0-188.513-150.432-341.333-336-341.333s-336 152.82-336 341.333c0 188.513 150.432 341.333 336 341.333s336-152.82 336-341.333z" />
<glyph unicode="&#xe925;" glyph-name="fingerprint" d="M79.605 373.981c0.407-1.227 0.745-2.491 1.007-3.79 1.255-6.22 2.636-12.375 4.14-18.463 4.24-17.157-6.231-34.503-23.388-38.743s-34.503 6.231-38.743 23.388c-1.394 5.639-2.693 11.324-3.898 17.052-0.448 1.312-0.817 2.668-1.098 4.064-31.328 155.369 13.153 313.378 116.812 429.266 11.782 13.172 32.012 14.299 45.185 2.517s14.299-32.012 2.517-45.185c-89.493-100.051-128.336-235.972-102.534-370.105zM928.915 537.241c-0.408 1.228-0.745 2.494-1.008 3.795-16.797 83.307-56.904 158.113-115.168 217.375-12.39 12.602-12.218 32.863 0.384 45.253s32.863 12.218 45.253-0.384c65.944-67.073 111.671-151.56 131.422-245.487 0.448-1.311 0.816-2.667 1.097-4.062 7.231-35.879 10.477-72.071 9.788-108.099-0.338-17.67-14.937-31.72-32.606-31.382s-31.72 14.937-31.382 32.606c0.576 30.099-2.002 60.342-7.781 90.385zM785.646 864.34c14.556-10.023 18.231-29.948 8.208-44.504s-29.948-18.231-44.504-8.208c-95.891 66.030-214.228 91.214-330.65 67.74-63.841-12.873-122.77-39.432-173.696-77.612-14.14-10.601-34.198-7.732-44.799 6.408s-7.732 34.198 6.408 44.799c58.502 43.86 126.215 74.379 199.437 89.143 133.598 26.937 269.565-1.999 379.597-77.766zM408.308-14.155c-11.665-13.277-31.884-14.584-45.161-2.919s-14.584 31.884-2.919 45.161c100.543 114.437 143.338 269.064 112.662 421.199-3.493 17.324 7.719 34.2 25.044 37.694s34.2-7.719 37.694-25.044c34.667-171.932-13.731-346.805-127.32-476.091zM658.529 426.922c1.985-17.561-10.643-33.406-28.204-35.391s-33.406 10.643-35.391 28.204c-1.981 17.532-4.73 35.041-8.249 52.492-0.17 0.844-0.305 1.688-0.407 2.53-10.292 44.248-53.978 72.567-98.807 63.527-45.662-9.208-75.212-53.687-65.596-101.894-0.143 1.198 2.005-14.778 2.859-22.416 9.92-88.788 0.135-179.559-46.621-268.823-21.624-41.284-50.379-79.349-86.861-113.482-12.905-12.074-33.155-11.401-45.23 1.505s-11.401 33.155 1.505 45.23c31.174 29.167 55.568 61.458 73.892 96.442 39.859 76.098 48.341 154.776 39.71 232.021-0.659 5.896-2.348 18.586-2.458 19.712-16.009 80.208 35.937 158.267 116.148 174.442 80.312 16.196 158.54-35.783 174.734-116.096 0.204-1.013 0.358-2.025 0.463-3.034 3.6-18.271 6.436-36.604 8.511-54.968zM545.379-26.575c-9.981-14.585-29.895-18.318-44.48-8.337s-18.318 29.895-8.337 44.48c64.555 94.338 101.523 205.028 105.796 319.64 0.658 17.661 15.509 31.444 33.17 30.785s31.444-15.509 30.786-33.17c-4.727-126.773-45.598-249.151-116.934-353.399zM246.058 399.492c-0.417 1.248-0.762 2.535-1.028 3.857-8.322 41.269-6.698 83.169 4.346 122.893 4.734 17.027 22.375 26.993 39.402 22.259s26.993-22.375 22.259-39.402c-8.018-28.838-9.476-59.17-4.009-89.246 0.409-1.23 0.747-2.498 1.010-3.801 23.865-118.351-20.258-238.328-112.008-313.481-13.672-11.199-33.834-9.194-45.033 4.478s-9.194 33.834 4.478 45.033c72.588 59.458 107.981 153.801 90.583 247.411zM699.488 8.152c-7.74-15.888-26.894-22.493-42.782-14.753s-22.493 26.894-14.753 42.782c68.922 141.476 90.287 301.479 58.555 458.867-5.875 28.565-27.169 72.989-57.637 105.476-43.756 46.656-101.5 66.944-178.32 51.454-45.321-9.139-85.11-33.144-114.108-67.88-11.326-13.567-31.505-15.384-45.073-4.058s-15.384 31.505-4.058 45.073c38.25 45.819 90.859 77.559 150.588 89.603 99.259 20.013 179.183-8.067 237.652-70.411 39.071-41.661 65.508-96.815 73.667-136.486 34.557-171.397 11.285-345.68-63.732-499.667zM131.327 380.419c-40.822 202.461 87.417 400.361 288.425 446.017 17.234 3.914 34.378-6.883 38.293-24.117s-6.883-34.378-24.117-38.293c-166.081-37.722-272.444-200.462-240.5-367.717 0.323-1.040 0.596-2.107 0.816-3.199 15.031-74.563-12.070-150.198-69.054-198.484-13.483-11.425-33.676-9.757-45.101 3.727s-9.756 33.676 3.727 45.101c38.591 32.699 57.315 83.464 48.276 133.933-0.3 0.987-0.556 1.999-0.765 3.032zM877.014 530.761c27.778-137.761 23.095-277.479-12.363-410.478-4.553-17.077-22.087-27.229-39.163-22.677s-27.229 22.087-22.677 39.163c32.773 122.927 37.242 252.001 11.849 379.43-0.168 0.631-0.317 1.27-0.448 1.917-28.897 143.317-151.869 247.22-295.878 253.562-17.656 0.778-31.339 15.721-30.561 33.377s15.721 31.339 33.377 30.561c172.549-7.599 319.893-131.552 355.385-302.819 0.181-0.67 0.341-1.348 0.48-2.036z" />
<glyph unicode="&#xe926;" glyph-name="no-costs" d="M434.871 443.762c-70.885 30.233-101.239 65.513-101.239 132.494 0 76.982 58.58 117.822 146.368 125.997v65.747c0 17.673 14.327 32 32 32s32-14.327 32-32v-65.296c48.359-3.309 97.413-14.114 131.388-28.912l123.611 118.221c-77.732 64.919-177.803 103.986-286.999 103.986-247.424 0-448-200.576-448-448 0-102.023 34.103-196.082 91.532-271.397l279.338 267.159zM480 398.365l-121.487-116.19c40.667-12.863 83.015-21.095 121.487-23.534v139.725zM310.868 236.608l-112.974-108.048c80.852-79.51 191.75-128.56 314.105-128.56 247.424 0 448 200.576 448 448 0 115.175-43.462 220.198-114.881 299.565l-290.328-277.669c96.492-32.522 133.752-61.838 133.752-131.752 0-81.384-53.46-129.119-138.419-141.156-2.024-0.287-4.066-0.553-6.125-0.799v-68.189c0-17.673-14.327-32-32-32s-32 14.327-32 32v66.526c-49.422 2.68-103.173 13.641-153.784 30.899-6.373 2.173-11.615 6.158-15.348 11.184zM544 548.133l79.752 76.274c-23.215 6.771-51.501 11.883-79.752 14.118v-90.393zM544 405.931v-145.153c54.28 8.377 80.544 32.593 80.544 77.366 0 29.72-19.107 46.182-80.544 67.787zM480 494.668v143.267c-54.628-6.167-82.368-26.837-82.368-61.679 0-38 20.872-58.649 82.368-81.588zM512-64c-282.77 0-512 229.23-512 512s229.23 512 512 512c282.77 0 512-229.23 512-512s-229.23-512-512-512z" />
</font>
</defs>
</svg>
