<?xml version="1.0" standalone="no"?>
<!DOCTYPE svg PUBLIC "-//W3C//DTD SVG 20010904//EN"
 "http://www.w3.org/TR/2001/REC-SVG-20010904/DTD/svg10.dtd">
<svg version="1.0" xmlns="http://www.w3.org/2000/svg"
 width="700.000000pt" height="700.000000pt" viewBox="0 0 700.000000 700.000000"
 preserveAspectRatio="xMidYMid meet">
<metadata>
Created by potrace 1.11, written by Peter Selinger 2001-2013
</metadata>
<g transform="translate(0.000000,700.000000) scale(0.100000,-0.100000)"
fill="#000000" stroke="none">
<path d="M3270 6994 c-518 -47 -931 -160 -1345 -369 -963 -484 -1655 -1398
-1859 -2454 -48 -244 -60 -388 -60 -666 0 -350 31 -599 114 -910 284 -1061
1065 -1937 2089 -2345 454 -180 945 -261 1451 -239 871 38 1690 400 2310 1019
809 810 1169 1958 970 3092 -150 848 -631 1636 -1322 2161 -503 382 -1079 615
-1713 693 -123 15 -538 27 -635 18z m-860 -1484 c231 -37 450 -149 615 -315
186 -187 296 -416 324 -673 6 -56 11 -260 11 -453 l0 -349 -222 2 -223 3 -5
410 c-6 455 -6 451 -78 590 -47 91 -173 219 -262 268 -140 77 -320 105 -470
73 -102 -21 -241 -91 -317 -161 -223 -201 -286 -533 -154 -800 91 -182 257
-317 444 -360 34 -8 125 -19 202 -24 323 -24 552 -125 762 -338 209 -211 318
-480 316 -783 -1 -233 -59 -427 -184 -620 -57 -87 -227 -255 -319 -315 -319
-207 -714 -240 -1064 -88 -304 132 -545 413 -631 735 -34 129 -45 279 -45 651
l0 317 225 0 225 0 0 -377 c0 -429 5 -468 69 -598 90 -181 248 -310 442 -361
95 -24 245 -22 344 5 192 53 348 184 435 366 41 87 60 174 60 286 0 191 -61
339 -195 475 -136 138 -256 188 -485 205 -164 11 -231 22 -335 55 -399 127
-698 475 -766 894 -23 146 -6 377 38 509 132 396 444 676 848 761 102 21 292
26 395 10z m2546 -5 c637 -111 1049 -749 889 -1377 -55 -216 -199 -446 -366
-582 l-48 -39 103 -101 c150 -147 248 -307 300 -492 64 -228 60 -453 -13 -668
-224 -657 -977 -956 -1588 -631 -279 148 -480 406 -565 725 l-22 85 -4 1030
c-2 727 0 1052 8 1105 70 470 421 842 885 940 113 23 300 26 421 5z"/>
<path d="M4650 5073 c-14 -2 -54 -13 -89 -24 -217 -68 -375 -225 -449 -444
l-26 -80 -4 -403 -3 -404 393 4 c441 5 448 6 598 80 124 61 231 170 293 299
58 120 72 180 71 304 -1 163 -46 294 -145 418 -132 164 -331 259 -536 256 -43
-1 -89 -4 -103 -6z"/>
<path d="M4083 2878 c3 -372 5 -408 24 -464 61 -183 189 -337 343 -412 112
-55 193 -75 310 -75 187 0 344 65 476 198 68 68 89 97 127 176 58 120 72 180
71 304 -1 263 -145 492 -379 605 -133 64 -183 70 -605 70 l-371 0 4 -402z"/>
</g>
</svg>
